<svg viewBox="0 0 502.87 502.87" xmlns="http://www.w3.org/2000/svg" xmlns:xlink="http://www.w3.org/1999/xlink"><radialGradient id="a" cx="251.42" cy="251.41" gradientUnits="userSpaceOnUse" r="251.4"><stop offset="0" stop-color="#fff" stop-opacity=".1"/><stop offset="1" stop-color="#fff" stop-opacity="0"/></radialGradient><path d="m102.56 400.31-86-86c-10.24-10.49-16.56-25.31-16.56-39.73 0-6.69 3.77-17.16 6.62-23.15l79.38-165.43z" fill="#01579b"/><path d="m397 102.56-86-86c-7.51-7.56-23.15-16.56-36.39-16.56-11.38 0-22.55 2.29-29.76 6.62l-158.78 79.38z" fill="#40c4ff"/><path d="m205.11 502.87h208.44v-89.32l-155.5-49.65-142.26 49.65z" fill="#40c4ff"/><path d="m86 354c0 26.54 3.33 33.05 16.53 46.32l13.23 13.24h297.79l-145.55-165.42-182-162.14z" fill="#29b6f6"/><path d="m350.7 86h-264.7l327.55 327.51h89.32v-205.11l-105.87-105.88c-14.88-14.9-28.08-16.52-46.3-16.52z" fill="#01579b"/><path d="m105.88 403.6c-13.23-13.27-16.52-26.36-16.52-49.6v-264.68l-3.29-3.32v268c0 23.25 0 29.69 19.81 49.61l9.91 9.91z" fill="#fff" opacity=".2"/><path d="m499.58 205.11v205.11h-89.32l3.29 3.33h89.32v-205.15z" fill="#263238" opacity=".2"/><path d="m397 102.56c-16.39-16.42-29.81-16.56-49.59-16.56h-261.34l3.29 3.29h258.05c9.87 0 34.79-1.66 49.61 13.24z" fill="#fff" opacity=".2"/><path d="m499.58 205.11-102.58-102.55-86-86c-7.51-7.56-23.15-16.56-36.39-16.56-11.38 0-22.55 2.29-29.76 6.62l-158.78 79.38-79.42 165.43c-2.84 6.03-6.65 16.49-6.65 23.15 0 14.45 6.36 29.2 16.52 39.7l79.31 78.72a92.42 92.42 0 0 0 6.73 7.32l3.29 3.29 9.9 9.91 86 86 3.29 3.29h208.4v-89.3h89.32v-205.11z" fill="url(#a)" opacity=".2"/></svg>