<?xml version="1.0" encoding="UTF-8"?>
<svg id="a" data-name="Layer 5" xmlns="http://www.w3.org/2000/svg" viewBox="0 0 24 24">
  <defs>
    <style>
      .b {
        fill-rule: evenodd;
      }
    </style>
  </defs>
  <path class="b" d="M11.97,1.82C6.38,1.82,1.84,6.36,1.84,11.96c0,4.48,2.9,8.27,6.93,9.61,.51,.09,.69-.22,.69-.49,0-.24,0-.88-.01-1.72-2.82,.61-3.41-1.36-3.41-1.36-.46-1.17-1.12-1.48-1.12-1.48-.92-.63,.07-.62,.07-.62,1.02,.07,1.55,1.04,1.55,1.04,.9,1.55,2.37,1.1,2.95,.84,.09-.65,.35-1.1,.64-1.35-2.25-.26-4.61-1.12-4.61-5.01,0-1.11,.39-2.01,1.04-2.72-.1-.26-.45-1.29,.1-2.68,0,0,.85-.27,2.79,1.04,.81-.22,1.67-.34,2.54-.34,.86,0,1.73,.12,2.54,.34,1.93-1.31,2.78-1.04,2.78-1.04,.55,1.39,.2,2.42,.1,2.68,.65,.71,1.04,1.61,1.04,2.72,0,3.89-2.37,4.75-4.63,5,.36,.31,.69,.93,.69,1.88,0,1.35-.01,2.45-.01,2.78,0,.27,.18,.59,.7,.49,4.02-1.34,6.92-5.14,6.92-9.61,0-5.6-4.54-10.13-10.13-10.13Z"/>
</svg>