<!DOCTYPE svg PUBLIC "-//W3C//DTD SVG 1.1//EN" "http://www.w3.org/Graphics/SVG/1.1/DTD/svg11.dtd">
<svg xmlns="http://www.w3.org/2000/svg" viewBox="0 0 24 24">
  <path d="M10.18,13.35H4.9l-1.19,3h-1.71L6.81,4.89h1.45l4.82,11.46h-1.7l-1.2-3Zm-4.78-1.24h4.28l-2.15-5.36-2.14,5.36Z"/>
  <path d="M20.32,16.35c-.12-.28-.2-.59-.23-.9-.71,.69-1.67,1.07-2.66,1.05-.82,.04-1.62-.22-2.27-.71-.57-.43-.9-1.1-.89-1.81-.02-.84,.4-1.63,1.11-2.07,.74-.49,1.79-.74,3.14-.74h1.55v-.66c.02-.46-.16-.9-.5-1.22-.42-.33-.95-.49-1.48-.45-.51-.02-1.02,.12-1.45,.39-.35,.2-.57,.56-.58,.96h-1.6c.01-.46,.19-.9,.5-1.23,.37-.42,.83-.74,1.35-.94,.6-.24,1.23-.35,1.87-.35,1.08,0,1.93,.25,2.54,.74,.61,.49,.96,1.24,.95,2.03v3.93c-.03,.64,.09,1.28,.33,1.87v.13h-1.68Zm-2.66-1.12c.5,0,.99-.12,1.43-.35,.41-.2,.75-.52,.98-.92v-1.75h-1.25c-1.96,0-2.94,.52-2.94,1.57-.02,.42,.17,.81,.51,1.07,.37,.27,.83,.41,1.29,.39Z"/>
</svg>