<!DOCTYPE svg PUBLIC "-//W3C//DTD SVG 1.1//EN" "http://www.w3.org/Graphics/SVG/1.1/DTD/svg11.dtd">
<svg xmlns="http://www.w3.org/2000/svg" viewBox="0 0 24 24">
  <path d="M9.39,13.62H4.64l-1.07,2.7h-1.54L6.36,6h1.3l4.34,10.32h-1.53l-1.08-2.7Zm-4.3-1.11h3.86l-1.93-4.83-1.92,4.83Z"/>
  <path d="M13.53,16.32V6h3.71c1.23,0,2.16,.24,2.78,.71,.62,.47,.93,1.16,.94,2.05,0,.47-.15,.92-.45,1.28-.33,.39-.76,.68-1.24,.85,.57,.13,1.08,.44,1.45,.89,.36,.44,.55,1,.53,1.56,.04,.84-.33,1.65-.99,2.18-.66,.53-1.59,.8-2.8,.79h-3.93Zm1.5-5.91h2.26c.56,.03,1.11-.13,1.57-.45,.38-.28,.6-.73,.58-1.21,0-.57-.18-.98-.54-1.24-.37-.26-.92-.39-1.65-.39h-2.22v3.29Zm0,1.09v3.71h2.47c.59,.03,1.17-.14,1.65-.49,.4-.33,.63-.83,.6-1.36,0-1.24-.74-1.87-2.23-1.87h-2.49Z"/>
</svg>