<!DOCTYPE svg PUBLIC "-//W3C//DTD SVG 1.1//EN" "http://www.w3.org/Graphics/SVG/1.1/DTD/svg11.dtd">
<svg xmlns="http://www.w3.org/2000/svg" viewBox="0 0 24 24">
  <g>
    <path d="M5.94,6.48l3.11,3.08,3.02-3.04-.94-.94-1.4,1.38v-2.17c0-.19,.07-.37,.19-.51,.12-.14,.3-.22,.48-.22h2.08v-1.34h-2.08c-.54,0-1.05,.23-1.43,.61-.39,.38-.6,.9-.57,1.45v2.17l-1.49-1.44-.97,.97Zm1.07,4.44l-1.35,1.38v8.2l1.35,1.35h9.57l1.36-1.35V12.3l-1.36-1.38H7.01Zm0,1.38h9.57v8.2H7.02V12.3Z"/>
  </g>
  <path d="M14.27,9.56V1.94h1.23v6.66l-.22,.96h-1.01Zm3.23-4.87c.36,0,.7,.05,1.01,.15s.57,.25,.8,.46c.23,.21,.4,.46,.53,.77,.13,.31,.19,.67,.19,1.09s-.06,.78-.19,1.1c-.12,.31-.3,.57-.53,.78s-.5,.36-.81,.47c-.31,.1-.65,.15-1.03,.15-.54,0-.99-.1-1.35-.3-.37-.2-.64-.46-.83-.77s-.28-.66-.28-1.03l.47-.06c.03,.19,.12,.38,.26,.57,.14,.18,.33,.34,.57,.46,.24,.12,.51,.18,.83,.18,.23,0,.45-.03,.64-.09,.19-.06,.36-.16,.5-.29,.14-.13,.25-.29,.32-.48,.08-.19,.11-.42,.11-.67s-.04-.49-.11-.68c-.08-.19-.19-.35-.33-.47-.14-.12-.31-.22-.5-.28-.19-.06-.41-.09-.65-.09-.3,0-.57,.06-.8,.18-.23,.12-.42,.27-.57,.45-.15,.18-.24,.37-.27,.56l-.47-.09c0-.37,.1-.71,.29-1.03,.19-.31,.47-.56,.84-.75,.37-.19,.82-.28,1.36-.28Z"/>
  <path d="M15.16,17.92c-.12,.16-.33,.32-.62,.48-.3,.16-.66,.3-1.08,.41s-.89,.16-1.39,.16c-.42,0-.84-.05-1.25-.14-.42-.09-.8-.24-1.14-.44s-.62-.46-.83-.77c-.21-.32-.31-.7-.31-1.15s.1-.84,.31-1.16c.21-.32,.48-.58,.83-.77,.35-.2,.73-.34,1.14-.43,.42-.09,.83-.13,1.25-.13,.51,0,.97,.05,1.39,.15,.42,.1,.77,.23,1.06,.39,.29,.16,.51,.34,.65,.53l-1.15,.61c-.17-.22-.42-.4-.74-.53-.32-.14-.73-.2-1.2-.2-.25,0-.5,.03-.74,.08-.24,.05-.47,.14-.67,.26-.2,.12-.36,.28-.49,.47s-.18,.44-.18,.74,.06,.53,.18,.73,.29,.36,.49,.48c.2,.12,.42,.21,.67,.26,.24,.06,.49,.09,.74,.09,.32,0,.6-.04,.86-.11,.26-.07,.48-.16,.66-.27,.19-.11,.32-.22,.4-.34l1.18,.6Z"/>
</svg>