<!DOCTYPE svg PUBLIC "-//W3C//DTD SVG 1.1//EN" "http://www.w3.org/Graphics/SVG/1.1/DTD/svg11.dtd">
<svg xmlns="http://www.w3.org/2000/svg" viewBox="0 0 24 24">
  <g>
    <path d="M6.21,11.4l-2.83-2.83,.87-.87,1.34,1.32v-2c0-.49,.19-.96,.54-1.31,.35-.36,.82-.56,1.31-.56h3.12v1.21h-3.12c-.17,.01-.32,.09-.44,.21-.12,.12-.18,.28-.18,.45v2l1.25-1.24,.87,.87-2.77,2.75h.03Zm-2.83,1.72l1.34-1.32h11.94l1.35,1.32v6.65l-1.35,1.31H4.73l-1.34-1.31v-6.65Zm1.34,0v6.65h11.94v-6.65H4.73Zm3.98-2.66l1.34-1.32h9.3l1.34,1.32v6.65l-1.35,1.32v-7.97H8.7Z"/>
  </g>
  <g>
    <path d="M14.32,6.96l.34,.51c-.02,.06-.07,.13-.15,.23-.08,.09-.19,.19-.33,.28-.14,.09-.32,.17-.54,.24s-.47,.1-.77,.1c-.52,0-.92-.11-1.22-.32s-.45-.54-.45-.97c0-.21,.05-.39,.14-.53,.09-.15,.22-.27,.39-.37,.17-.1,.37-.17,.61-.21s.5-.07,.8-.07h1.18v.64h-1.12c-.25,0-.46,.02-.63,.05-.17,.04-.3,.09-.39,.18-.09,.08-.13,.19-.13,.32,0,.15,.04,.26,.11,.35,.08,.08,.19,.15,.33,.18,.14,.04,.31,.06,.51,.06,.23,0,.44-.03,.63-.09,.19-.06,.34-.14,.47-.24,.12-.1,.2-.21,.24-.32Zm-1.17-2.75c.26,0,.5,.03,.73,.09,.23,.06,.43,.15,.61,.26,.17,.12,.31,.26,.41,.44,.1,.18,.15,.38,.15,.61v1.89l-.81-.17v-1.59c0-.14-.03-.26-.09-.36-.06-.1-.15-.18-.26-.24-.11-.06-.23-.11-.37-.13-.14-.03-.28-.04-.42-.04-.19,0-.35,.02-.51,.07-.15,.05-.29,.11-.4,.18s-.2,.14-.26,.21l-.66-.57c.08-.1,.21-.2,.39-.3,.17-.1,.39-.19,.64-.26,.25-.07,.53-.1,.85-.1Zm1.76,4.16l-.6-.89,.46-.64,.74,1.02-.61,.51Z"/>
    <path d="M16.9,8.23V1.94h.85V7.44l-.15,.79h-.7Zm2.22-4.02c.25,0,.48,.04,.69,.13s.4,.21,.55,.38c.16,.17,.28,.38,.36,.64s.13,.56,.13,.9-.04,.65-.13,.9c-.09,.26-.21,.47-.36,.64-.16,.17-.34,.3-.56,.39-.21,.09-.45,.13-.71,.13-.37,0-.68-.08-.93-.25-.25-.16-.44-.38-.57-.64-.13-.26-.19-.55-.19-.85l.32-.05c.02,.16,.08,.32,.18,.47,.1,.15,.23,.28,.39,.38,.16,.1,.35,.15,.57,.15,.16,0,.31-.03,.44-.08,.13-.05,.25-.13,.35-.24s.17-.24,.22-.4c.05-.16,.08-.34,.08-.56s-.03-.4-.08-.56c-.05-.16-.13-.29-.23-.39-.1-.1-.21-.18-.35-.23s-.28-.07-.44-.07c-.21,0-.39,.05-.55,.15-.16,.1-.29,.22-.39,.37-.1,.15-.16,.3-.19,.46l-.32-.07c0-.31,.07-.59,.2-.85,.13-.26,.33-.46,.58-.62,.25-.15,.57-.23,.93-.23Z"/>
  </g>
  <g>
    <path d="M9.37,17.06l.29,.5c-.02,.06-.06,.13-.12,.22-.06,.09-.16,.18-.28,.28s-.27,.17-.45,.23c-.18,.06-.4,.1-.66,.1-.44,0-.78-.1-1.04-.31-.25-.21-.38-.52-.38-.94,0-.2,.04-.37,.12-.52,.08-.15,.19-.26,.33-.36,.14-.09,.31-.16,.51-.21,.2-.04,.43-.07,.68-.07h1v.62h-.95c-.21,0-.39,.02-.54,.05-.15,.03-.26,.09-.33,.17-.08,.08-.11,.18-.11,.31,0,.14,.03,.26,.1,.34,.06,.08,.16,.14,.28,.18s.26,.05,.43,.05c.2,0,.37-.03,.53-.09,.16-.06,.29-.14,.39-.24,.1-.1,.17-.2,.21-.32Zm-.99-2.68c.22,0,.43,.03,.62,.09,.19,.06,.36,.14,.51,.25,.15,.11,.26,.25,.35,.43,.08,.17,.13,.37,.13,.59v1.83l-.68-.17v-1.54c0-.13-.03-.25-.08-.35s-.13-.17-.22-.23c-.09-.06-.2-.1-.31-.13s-.24-.04-.36-.04c-.16,0-.3,.02-.43,.07-.13,.05-.24,.11-.34,.18-.1,.07-.17,.14-.22,.21l-.56-.55c.07-.09,.18-.19,.33-.29,.15-.1,.33-.18,.54-.25,.21-.07,.45-.1,.72-.1Zm1.49,4.04l-.5-.86,.39-.62,.63,.99-.52,.49Z"/>
    <path d="M14.44,17.54c-.06,.13-.16,.26-.31,.39-.15,.13-.33,.24-.54,.33s-.45,.13-.7,.13c-.21,0-.42-.04-.63-.11-.21-.07-.4-.19-.57-.35-.17-.16-.31-.37-.42-.62-.1-.25-.16-.56-.16-.92s.05-.67,.16-.93,.24-.46,.42-.62c.17-.16,.37-.27,.57-.34,.21-.07,.42-.11,.63-.11,.26,0,.49,.04,.7,.12,.21,.08,.39,.18,.53,.31,.15,.13,.25,.27,.32,.43l-.58,.49c-.08-.18-.21-.32-.37-.43s-.37-.16-.61-.16c-.13,0-.25,.02-.37,.06-.12,.04-.24,.11-.34,.21s-.18,.22-.25,.38c-.06,.16-.09,.36-.09,.59s.03,.43,.09,.59c.06,.16,.14,.29,.25,.38,.1,.1,.21,.17,.34,.21,.12,.05,.25,.07,.37,.07,.16,0,.3-.03,.43-.09,.13-.06,.24-.13,.33-.21s.16-.18,.2-.27l.59,.48Z"/>
  </g>
</svg>