<!DOCTYPE svg PUBLIC "-//W3C//DTD SVG 1.1//EN" "http://www.w3.org/Graphics/SVG/1.1/DTD/svg11.dtd">
<svg xmlns="http://www.w3.org/2000/svg" viewBox="0 0 24 24">
  <g>
    <path d="M9.66,16.34c-.1-.24-.17-.49-.19-.75-.6,.58-1.41,.89-2.24,.88-.69,.03-1.36-.18-1.91-.6-.48-.36-.75-.92-.74-1.52-.02-.7,.34-1.36,.93-1.73,.62-.41,1.5-.62,2.64-.62h1.31v-.56c.02-.39-.14-.76-.43-1.02-.35-.28-.79-.41-1.24-.38-.43-.02-.85,.1-1.21,.33-.29,.16-.48,.47-.49,.8h-1.35c0-.38,.16-.75,.42-1.04,.31-.35,.7-.62,1.13-.79,.5-.2,1.04-.3,1.57-.29,.91,0,1.62,.21,2.13,.62,.51,.42,.8,1.04,.79,1.7v3.3c-.02,.54,.07,1.07,.28,1.57v.11h-1.4Zm-2.23-.94c.42,0,.83-.1,1.2-.3,.35-.17,.63-.44,.82-.77v-1.47h-1.05c-1.65,0-2.47,.44-2.47,1.32-.02,.35,.14,.69,.42,.9,.31,.23,.7,.34,1.08,.32Z"/>
    <path d="M19.56,12.85c0,1.09-.28,1.97-.83,2.64-.55,.66-1.37,1.03-2.23,.99-.99,0-1.76-.32-2.31-.96l-.06,.83h-1.23V6.19h1.35v3.79c.54-.61,1.29-.92,2.25-.92,.86-.04,1.69,.33,2.24,.98,.55,.66,.82,1.56,.82,2.7v.11Zm-1.35-.14c0-.83-.18-1.47-.53-1.93-.37-.46-.95-.72-1.54-.68-.81-.05-1.56,.4-1.91,1.13v3.09c.37,.72,1.12,1.16,1.93,1.12,.58,.03,1.14-.23,1.51-.68,.36-.45,.55-1.14,.55-2.05Z"/>
  </g>
  <rect x="2" y="17.46" width="20" height="1.54"/>
  <rect x="20.46" y="15.26" width="1.54" height="3.3"/>
  <rect x="2" y="15.26" width="1.54" height="3.74"/>
</svg>